<?xml version="1.0" encoding="UTF-8"?>
<svg width="24px" height="24px" viewBox="0 0 24 24" version="1.1" xmlns="http://www.w3.org/2000/svg">
    <g stroke="none" stroke-width="1" fill="none" fill-rule="evenodd">
        <path d="M21,5 C19.89,4.65 18.67,4.5 17.5,4.5 C15.55,4.5 13.45,4.9 12,6 C10.55,4.9 8.45,4.5 6.5,4.5 C4.55,4.5 2.45,4.9 1,6 L1,20.5 C1,20.78 1.22,21 1.5,21 C1.55,21 1.6,20.99 1.66,20.97 C3.06,20.4 4.99,20 6.5,20 C8.45,20 10.55,20.4 12,21.5 C13.35,20.65 15.8,20 17.5,20 C19.15,20 20.91,20.3 22.28,21.05 C22.36,21.09 22.44,21.1 22.5,21.1 C22.78,21.1 23,20.88 23,20.6 L23,6 C22.27,5.46 21.65,5.19 21,5 Z M21,18.5 C19.9,18.15 18.7,18 17.5,18 C15.8,18 13.35,18.65 12,19.5 L12,8 C13.35,7.15 15.8,6.5 17.5,6.5 C18.7,6.5 19.9,6.65 21,7 L21,18.5 Z" fill="#4183C4"></path>
        <path d="M17.5,10.5 C18.38,10.5 19.23,10.59 20,10.76 L20,9.24 C19.21,9.09 18.36,9 17.5,9 C16.22,9 15.01,9.16 14,9.42 L14,10.91 C14.99,10.67 16.2,10.5 17.5,10.5 Z" fill="#4183C4"></path>
        <path d="M17.5,13.5 C18.38,13.5 19.23,13.59 20,13.76 L20,12.24 C19.21,12.09 18.36,12 17.5,12 C16.22,12 15.01,12.16 14,12.42 L14,13.91 C14.99,13.67 16.2,13.5 17.5,13.5 Z" fill="#4183C4"></path>
        <path d="M17.5,16.5 C18.38,16.5 19.23,16.59 20,16.76 L20,15.24 C19.21,15.09 18.36,15 17.5,15 C16.22,15 15.01,15.16 14,15.42 L14,16.91 C14.99,16.67 16.2,16.5 17.5,16.5 Z" fill="#4183C4"></path>
    </g>
</svg>
